<svg width="150" height="159" viewBox="0 0 150 159" fill="none" xmlns="http://www.w3.org/2000/svg">
<path d="M67.3326 111.861C62.0691 115.228 55.8324 117.176 49.1462 117.176C30.3143 117.176 15.048 101.72 15.048 82.6552C15.048 63.5899 30.3143 48.1345 49.1462 48.1345C55.8324 48.1345 62.0691 50.0827 67.3326 53.4491L80.2668 44.1444C71.7921 37.1168 60.9556 32.9 49.1462 32.9C22.0035 32.9 0 55.1761 0 82.6552C0 110.134 22.0035 132.41 49.1462 132.41C60.9556 132.41 71.7921 128.193 80.2668 121.166L67.3326 111.861Z" fill="#F00000"/>
<path d="M105.176 129.655L82.7642 74.5517L82.7642 118.31L68.3567 107.882L68.3567 56.9752L82.7642 47L105.176 81.0345L114.781 29.1724L150 0L121.185 141L105.176 129.655Z" fill="#F00000"/>
<path d="M47.998 145.815H45.3027C45.3174 146.279 45.4395 146.724 45.6689 147.148C45.8984 147.573 46.2427 147.954 46.7017 148.291C47.1655 148.623 47.7393 148.882 48.4229 149.067L47.5732 150.503C46.8311 150.312 46.1914 150.02 45.6543 149.624C45.1221 149.224 44.7021 148.745 44.3945 148.188C44.0918 148.799 43.6694 149.324 43.1274 149.763C42.5903 150.203 41.9385 150.527 41.1719 150.737L40.293 149.302C40.9766 149.111 41.5527 148.838 42.0215 148.481C42.4902 148.125 42.8418 147.717 43.0762 147.258C43.3105 146.799 43.4326 146.318 43.4424 145.815H40.7617V144.351H43.4424V142.959H45.332V144.351H47.998V145.815ZM42.2559 151.382H50.9717V156.201H42.2559V151.382ZM49.126 154.707V152.861H44.1016V154.707H49.126ZM49.0967 143.018H50.9717V146.152H52.7734V147.676H50.9717V150.825H49.0967V143.018ZM79.5801 152.861H77.7344V150.078H74.6875V148.584H77.7344V147.09H74.8779C74.4043 148.105 73.6938 148.982 72.7466 149.719C71.7993 150.457 70.6543 151.025 69.3115 151.426L68.5352 149.976C69.9561 149.526 71.0938 148.918 71.9482 148.152C72.8076 147.38 73.3203 146.504 73.4863 145.522H69.2529V144.028H75.5371C75.5371 144.551 75.4834 145.073 75.376 145.596H77.7344V143.032H79.5801V152.861ZM70.8057 151.88H72.71V154.619H79.9316V156.113H70.8057V151.88ZM107.485 152.612H105.61V143.032H107.485V152.612ZM96.5283 147.236C96.5283 146.597 96.6895 146.021 97.0117 145.508C97.334 144.995 97.771 144.597 98.3228 144.314C98.8794 144.026 99.4971 143.882 100.176 143.882C100.85 143.882 101.465 144.026 102.021 144.314C102.578 144.597 103.018 144.995 103.34 145.508C103.662 146.021 103.823 146.597 103.823 147.236C103.823 147.886 103.662 148.469 103.34 148.987C103.018 149.5 102.578 149.9 102.021 150.188C101.465 150.476 100.85 150.62 100.176 150.62C99.4971 150.62 98.8794 150.476 98.3228 150.188C97.7661 149.9 97.3267 149.5 97.0044 148.987C96.687 148.469 96.5283 147.886 96.5283 147.236ZM98.3594 147.236C98.3545 147.598 98.4302 147.913 98.5864 148.181C98.7427 148.445 98.9575 148.647 99.231 148.789C99.5093 148.926 99.8242 148.994 100.176 148.994C100.518 148.994 100.823 148.926 101.091 148.789C101.365 148.647 101.58 148.445 101.736 148.181C101.897 147.913 101.978 147.598 101.978 147.236C101.978 146.885 101.897 146.577 101.736 146.313C101.58 146.05 101.365 145.85 101.091 145.713C100.818 145.571 100.513 145.503 100.176 145.508C99.8242 145.503 99.5093 145.571 99.231 145.713C98.9575 145.85 98.7427 146.05 98.5864 146.313C98.4302 146.577 98.3545 146.885 98.3594 147.236ZM98.5498 151.646H100.439V154.619H107.837V156.113H98.5498V151.646Z" fill="#333333"/>
</svg>
